<svg width="21" height="20" viewBox="0 0 21 20" fill="none" xmlns="http://www.w3.org/2000/svg">
<path d="M20.041 10C20.041 15.5228 15.5639 20 10.041 20C4.51817 20 0.0410156 15.5228 0.0410156 10C0.0410156 4.47715 4.51817 0 10.041 0C15.5639 0 20.041 4.47715 20.041 10Z" fill="#1769FF"/>
<path fill-rule="evenodd" clip-rule="evenodd" d="M14.6291 6.49023C14.9593 6.81077 14.9672 7.33834 14.6467 7.66861L8.30958 14.1979L4.44106 10.1939C4.12127 9.86296 4.13035 9.3354 4.46133 9.01561C4.79232 8.69582 5.31988 8.70489 5.63967 9.03588L8.31229 11.8021L13.4507 6.50783C13.7712 6.17757 14.2988 6.16969 14.6291 6.49023Z" fill="white"/>
</svg>
