<svg width="21" height="20" viewBox="0 0 21 20" fill="none" xmlns="http://www.w3.org/2000/svg">
<path d="M19.541 10C19.541 15.2467 15.2877 19.5 10.041 19.5C4.79431 19.5 0.541016 15.2467 0.541016 10C0.541016 4.75329 4.79431 0.5 10.041 0.5C15.2877 0.5 19.541 4.75329 19.541 10Z" fill="white" stroke="#CCCCCC"/>
<path fill-rule="evenodd" clip-rule="evenodd" d="M15.1252 6.26366C15.4554 6.5842 15.4633 7.11178 15.1428 7.44204L8.80568 13.9713L4.93716 9.96738C4.61736 9.6364 4.62644 9.10884 4.95743 8.78905C5.28841 8.46926 5.81597 8.47833 6.13576 8.80932L8.80839 11.5755L13.9468 6.28127C14.2673 5.951 14.7949 5.94312 15.1252 6.26366Z" fill="#CCCCCC"/>
</svg>
