<svg width="157" height="42" viewBox="0 0 157 42" fill="none" xmlns="http://www.w3.org/2000/svg">
<path d="M24.5767 36.3109H24.0773C23.9063 36.3109 23.7612 36.1812 23.7367 36.0072C23.4344 33.7624 22.2692 30.9924 19.612 28.1655C19.4425 27.9867 19.4104 27.7083 19.5417 27.4995C21.8675 23.774 24.0193 18.1819 22.8495 14.4564C22.5502 13.4994 22.0554 12.7131 21.388 12.1215C21.2536 12.0028 21.2766 11.7845 21.4323 11.6975C23.1015 10.7784 24.2071 8.89907 24.0605 6.77295C23.8833 4.23235 21.8843 2.179 19.4333 2.01131C16.5425 1.81515 14.1296 4.19597 14.1296 7.14945C14.1296 8.66811 14.7664 10.0349 15.7789 10.9762C15.9087 11.0964 15.8828 11.3115 15.7285 11.3954C15.504 11.5172 15.2857 11.658 15.0734 11.8162C12.6407 13.6575 11.8664 17.5191 11.7931 19.5091C11.7595 20.3982 11.8206 21.2683 11.9749 22.1257C12.2788 23.8421 12.9568 25.5015 14.0197 27.1246C14.3419 27.615 14.7008 28.0817 15.0887 28.5183L17.0617 30.7504C19.0592 33.0648 20.1327 35.3364 20.287 37.4214C20.2946 37.499 20.3007 37.5749 20.3038 37.6524C20.3603 38.9686 21.4018 40 22.6754 40H24.6347C25.6288 40 26.4321 39.1568 26.4153 38.1207C26.3985 37.105 25.5555 36.3093 24.5751 36.3093L24.5767 36.3109ZM19.1004 5.68774C19.8777 5.68774 20.5115 6.34266 20.5115 7.14945C20.5115 7.95624 19.8792 8.61116 19.1004 8.61116C18.3216 8.61116 17.6909 7.95624 17.6909 7.14945C17.6909 6.34266 18.3216 5.68774 19.1004 5.68774ZM16.5929 24.4511C15.6919 22.8803 15.2918 21.3078 15.3513 19.6515C15.4155 17.9304 16.1317 15.5859 17.1732 14.7965C17.3564 14.6589 17.587 14.5292 17.9367 14.5292C18.091 14.5292 18.2681 14.5545 18.4758 14.613C19.0027 14.7649 19.2882 15.0497 19.4593 15.597C19.9861 17.2707 19.1111 21.0025 17.19 24.4416C17.0571 24.6805 16.7273 24.6852 16.5913 24.4511H16.5929Z" fill="#1769FF"/>
<path d="M12.6528 30.0108C12.5993 29.9349 12.4985 29.9175 12.4222 29.9665C9.52522 31.8538 7.37656 30.7575 6.45418 30.4506C5.28594 30.0599 4.03675 30.6452 3.5496 31.8142L2.64707 33.972C2.25613 34.9069 2.6715 35.9921 3.57403 36.3971C4.47656 36.8021 5.52417 36.3718 5.91511 35.4385L6.30453 34.5083C6.36867 34.3532 6.52901 34.2662 6.68783 34.2995C8.58757 34.6902 11.3624 35.179 14.6594 32.871C14.7465 32.8108 14.7602 32.6827 14.6899 32.6036C14.3784 32.2461 14.0684 31.8759 13.763 31.4915C13.372 30.9995 13.0025 30.506 12.6543 30.0124L12.6528 30.0108Z" fill="#1769FF"/>
<g clip-path="url(#clip0_341_31226)">
<path d="M34.679 14.2746C34.2595 13.8594 34.0488 13.3442 34.0488 12.7252C34.0488 12.1063 34.2595 11.5892 34.679 11.174C35.0984 10.7589 35.626 10.5513 36.2616 10.5513C36.8972 10.5513 37.4229 10.7589 37.8442 11.174C38.2637 11.5892 38.4744 12.1063 38.4744 12.7252C38.4744 13.3442 38.2637 13.8613 37.8442 14.2765C37.4248 14.6916 36.8972 14.8992 36.2616 14.8992C35.626 14.8992 35.1003 14.6916 34.679 14.2765V14.2746ZM38.0366 16.6467V31.3304H34.4353V16.6467H38.0366Z" fill="black"/>
<path d="M53.6006 18.0929C54.6465 19.1968 55.1704 20.7386 55.1704 22.7182V31.333H51.5692V23.2221C51.5692 22.0558 51.2871 21.1595 50.721 20.531C50.155 19.9045 49.3839 19.5894 48.4057 19.5894C47.4275 19.5894 46.6252 19.9026 46.0519 20.531C45.4767 21.1576 45.1891 22.0558 45.1891 23.2221V31.333H41.5879V16.6473H45.1891V18.476C45.6691 17.84 46.2827 17.3399 47.0282 16.9776C47.7737 16.6152 48.5925 16.4341 49.4846 16.4341C51.1827 16.4341 52.5546 16.987 53.6006 18.091V18.0929Z" fill="black"/>
<path d="M62.7859 19.6965V26.7997C62.7859 27.2941 62.9013 27.6527 63.1339 27.8735C63.3647 28.0943 63.7549 28.2056 64.3044 28.2056H65.9768V31.3326H63.7127C60.6775 31.3326 59.159 29.8134 59.159 26.7733V19.6965H57.4609V16.6488H59.159V13.0161H62.7859V16.6469H65.9768V19.6947H62.7859V19.6965Z" fill="black"/>
<path d="M81.7209 25.1036H71.3018C71.3879 26.1642 71.7469 26.9945 72.3826 27.5946C73.0164 28.1947 73.7985 28.4967 74.7236 28.4967C76.0607 28.4967 77.0133 27.9041 77.5793 26.7209H81.4644C81.0523 28.1343 80.2628 29.2968 79.0978 30.2064C77.931 31.116 76.4985 31.5708 74.8005 31.5708C73.4285 31.5708 72.1976 31.2575 71.1077 30.6291C70.0178 30.0026 69.1697 29.1138 68.5615 27.9645C67.9515 26.8152 67.6475 25.4905 67.6475 23.9883C67.6475 22.4862 67.9479 21.135 68.5487 19.9857C69.1495 18.8364 69.9903 17.9533 71.0692 17.3362C72.1499 16.7172 73.3937 16.4077 74.8005 16.4077C76.2073 16.4077 77.3686 16.7078 78.4402 17.3098C79.5118 17.9099 80.3434 18.7629 80.9351 19.8668C81.5267 20.9708 81.8235 22.2389 81.8235 23.6694C81.8235 24.1997 81.7887 24.6771 81.7209 25.0998V25.1036ZM78.094 22.6126C78.0775 21.6577 77.7423 20.8953 77.0902 20.3197C76.4381 19.746 75.6413 19.4592 74.6979 19.4592C73.8058 19.4592 73.0548 19.7385 72.4467 20.2933C71.8367 20.85 71.4648 21.6237 71.3275 22.6126H78.094Z" fill="black"/>
<path d="M89.8649 17.0984C90.6104 16.6568 91.464 16.436 92.4257 16.436V20.333H91.4732C90.3411 20.333 89.4875 20.6066 88.9142 21.1539C88.339 21.7011 88.0514 22.656 88.0514 24.0166V31.3311H84.4502V16.6474H88.0514V18.927C88.5149 18.1495 89.1194 17.54 89.8649 17.0984Z" fill="black"/>
<path d="M100.361 17.0843C101.176 16.6333 102.107 16.4087 103.153 16.4087C104.371 16.4087 105.472 16.7182 106.459 17.3372C107.444 17.9561 108.225 18.8355 108.8 19.9735C109.375 21.1133 109.663 22.4343 109.663 23.9364C109.663 25.4386 109.375 26.769 108.8 27.9258C108.225 29.0826 107.444 29.979 106.459 30.6169C105.473 31.2528 104.371 31.5718 103.153 31.5718C102.107 31.5718 101.185 31.351 100.387 30.9094C99.5898 30.4678 98.9414 29.9111 98.445 29.2393V38.3296H94.8438V16.6465H98.445V18.7676C98.9084 18.0958 99.5459 17.5353 100.361 17.0843ZM105.455 21.6436C105.103 20.9982 104.64 20.5075 104.067 20.1735C103.491 19.8376 102.871 19.6697 102.202 19.6697C101.533 19.6697 100.936 19.8414 100.363 20.1867C99.7877 20.5321 99.3242 21.0303 98.9744 21.6851C98.6227 22.3399 98.4468 23.108 98.4468 23.9912C98.4468 24.8744 98.6227 25.6443 98.9744 26.2972C99.3261 26.9502 99.7895 27.4503 100.363 27.7956C100.938 28.141 101.55 28.3127 102.202 28.3127C102.854 28.3127 103.491 28.1353 104.067 27.7824C104.642 27.4295 105.103 26.9257 105.455 26.2708C105.807 25.6179 105.983 24.8404 105.983 23.9383C105.983 23.0363 105.807 22.2909 105.455 21.6455V21.6436Z" fill="black"/>
<path d="M112.221 19.9867C112.796 18.8374 113.577 17.9542 114.562 17.3372C115.548 16.7182 116.65 16.4087 117.868 16.4087C118.931 16.4087 119.861 16.6295 120.66 17.0711C121.457 17.5127 122.096 18.0694 122.576 18.7412V16.6465H126.203V31.3302H122.576V29.1827C122.113 29.8715 121.473 30.4414 120.66 30.8924C119.845 31.3434 118.905 31.568 117.843 31.568C116.643 31.568 115.549 31.2491 114.562 30.6131C113.575 29.9771 112.795 29.0808 112.221 27.9221C111.646 26.7653 111.358 25.4348 111.358 23.9327C111.358 22.4305 111.646 21.1322 112.221 19.9829V19.9867ZM122.061 21.67C121.719 21.0246 121.255 20.5302 120.673 20.1848C120.09 19.8395 119.464 19.6678 118.795 19.6678C118.127 19.6678 117.509 19.8357 116.943 20.1716C116.377 20.5075 115.918 20.9982 115.568 21.6417C115.216 22.2871 115.04 23.0514 115.04 23.9346C115.04 24.8177 115.216 25.5915 115.568 26.2538C115.919 26.9162 116.383 27.4239 116.956 27.7786C117.531 28.1315 118.143 28.3089 118.795 28.3089C119.447 28.3089 120.09 28.1372 120.673 27.7919C121.255 27.4465 121.719 26.9521 122.061 26.3067C122.404 25.6613 122.576 24.8894 122.576 23.9874C122.576 23.0854 122.404 22.3135 122.061 21.6681V21.67Z" fill="black"/>
<path d="M134.822 17.0984C135.567 16.6568 136.421 16.436 137.383 16.436V20.333H136.43C135.298 20.333 134.445 20.6066 133.871 21.1539C133.296 21.7011 133.008 22.656 133.008 24.0166V31.3311H129.407V16.6474H133.008V18.927C133.472 18.1495 134.076 17.54 134.822 17.0984Z" fill="black"/>
<path d="M148.559 31.3312L143.723 25.0754V31.3312H140.122V11.7183H143.723V22.8769L148.508 16.6474H153.19L146.912 24.0167L153.241 31.3312H148.559Z" fill="black"/>
</g>
<defs>
<clipPath id="clip0_341_31226">
<rect width="119.193" height="27.7766" fill="white" transform="translate(34.0488 10.55)"/>
</clipPath>
</defs>
</svg>
